<svg width="512" height="512" viewBox="0 0 512 512" fill="none" xmlns="http://www.w3.org/2000/svg">
<mask id="mask0_2_18" style="mask-type:alpha" maskUnits="userSpaceOnUse" x="0" y="0" width="512" height="512">
<circle cx="256" cy="256" r="254" fill="#A4B494" stroke="black" stroke-width="4"/>
</mask>
<g mask="url(#mask0_2_18)">
<circle cx="256" cy="256" r="254" fill="#80C2AF" stroke="#30C5FF" stroke-width="4"/>
<path d="M547.45 61.4319L545.688 259.21C449.397 239.66 351.187 289.494 292.8 344.974L292.516 345.244L292.355 345.602C281.696 369.245 286.302 395.9 293.054 420.068C294.748 426.132 296.587 432.071 298.37 437.786L298.792 439.138C300.427 444.377 301.999 449.413 303.366 454.215C306.35 464.695 308.273 473.784 307.795 481.065C305.86 510.537 276.435 555.908 204.502 570.727L112.777 542.77C112.764 542.732 112.752 542.693 112.739 542.653C112.506 541.932 112.167 540.869 111.743 539.509C110.895 536.787 109.708 532.875 108.355 528.119C105.647 518.602 102.278 505.725 99.6242 492.259C96.9662 478.775 95.0433 464.789 95.1868 453.026C95.2585 447.145 95.8466 441.898 97.076 437.581C98.3081 433.255 100.141 430.012 102.593 427.943C105.71 425.312 107.479 422.56 108.227 419.58C108.963 416.645 108.65 413.705 108.011 410.811C107.635 409.112 107.098 407.253 106.556 405.374C106.208 404.171 105.858 402.959 105.546 401.775C104.714 398.615 104.033 395.267 103.946 391.593C103.603 377.146 112.457 356.075 164.098 322.317C190.088 305.327 204.922 290.283 212.408 277.151C219.943 263.932 220.017 252.661 216.54 243.524C213.104 234.493 206.295 227.794 200.48 223.395C197.557 221.184 194.845 219.525 192.86 218.415C191.867 217.86 191.053 217.441 190.482 217.159C190.391 217.114 190.307 217.073 190.229 217.035C190.13 216.987 190.041 216.944 189.963 216.907C189.936 216.878 189.908 216.847 189.877 216.814C189.634 216.551 189.277 216.175 188.807 215.706C187.867 214.767 186.473 213.454 184.629 211.924C180.943 208.865 175.453 204.931 168.194 201.388C153.652 194.29 132.069 188.792 103.821 194.961C90.3036 197.913 79.8468 196.471 71.7426 192.791C63.6183 189.101 57.6887 183.084 53.379 176.615C49.0651 170.141 46.413 163.27 44.8399 157.993C44.055 155.36 43.5431 153.138 43.2284 151.582C43.0711 150.804 42.9634 150.194 42.8955 149.782C42.8616 149.577 42.8376 149.421 42.8225 149.319L42.8155 149.271C42.8115 149.243 42.8084 149.222 42.8063 149.207L42.8029 149.182L42.8024 149.178L42.8022 149.177L42.7784 148.998L42.7223 148.825L-4.54982 3.00505L129.173 58.3661C129.026 88.9647 139.216 108.48 153.533 120.275C167.984 132.181 186.351 135.982 201.707 135.762C205.978 135.701 210.297 133.932 214.622 131.457C218.643 129.155 222.882 126.114 227.295 122.947C227.642 122.697 227.99 122.448 228.34 122.197C238.022 115.256 248.711 107.82 261.136 104.8C273.419 101.815 287.577 103.114 304.273 114.102C321.057 125.148 340.412 145.996 362.829 182.163L363.074 182.559L363.47 182.806C375.217 190.131 388.178 188.548 401.818 181.82C415.409 175.115 430.056 163.134 445.59 148.985C452.963 142.269 460.548 135.056 468.343 127.644C492.694 104.488 519.091 79.3872 547.45 61.4319Z" fill="#A0DDE6" stroke="#30C5FF" stroke-width="4"/>
<circle cx="256" cy="256" r="254" stroke="#30C5FF" stroke-width="4"/>
</g>
</svg>
